<svg width="36" height="35" viewBox="0 0 36 35" fill="none" xmlns="http://www.w3.org/2000/svg">
<path d="M7.89448 4.37494V30.6249C7.89532 30.8907 7.96861 31.1512 8.10649 31.3784C8.24437 31.6056 8.4416 31.7909 8.67695 31.9144C8.91231 32.0378 9.17688 32.0948 9.44219 32.079C9.70749 32.0633 9.96348 31.9755 10.1826 31.8251L29.1409 18.7001C29.927 18.1562 29.927 16.8466 29.1409 16.3012L10.1826 3.17619C9.96394 3.02427 9.70782 2.93518 9.44207 2.9186C9.17632 2.90202 8.91112 2.95858 8.67526 3.08215C8.43941 3.20571 8.24192 3.39155 8.10427 3.61947C7.96662 3.84739 7.89406 4.10868 7.89448 4.37494Z" fill="white"/>
</svg>
