<svg width="35" height="35" viewBox="0 0 35 35" fill="none" xmlns="http://www.w3.org/2000/svg">
<path d="M30.6248 7.29097L4.37482 7.29096C4.10905 7.2918 3.84854 7.3651 3.62133 7.50297C3.39412 7.64085 3.20882 7.83808 3.08537 8.07344C2.96191 8.30879 2.90498 8.57336 2.92071 8.83867C2.93643 9.10397 3.02422 9.35996 3.17461 9.57909L16.2996 28.5374C16.8436 29.3235 18.1531 29.3235 18.6986 28.5374L31.8236 9.57909C31.9755 9.36042 32.0646 9.1043 32.0812 8.83856C32.0977 8.57281 32.0412 8.3076 31.9176 8.07175C31.794 7.83589 31.6082 7.63841 31.3803 7.50076C31.1524 7.3631 30.8911 7.29055 30.6248 7.29097Z" fill="#E1C78F"/>
</svg>
