<svg width="45" height="45" viewBox="0 0 45 45" fill="none" xmlns="http://www.w3.org/2000/svg">
<path d="M18.75 6.09375C17.8798 6.09375 17.0452 6.43945 16.4298 7.05481C15.8145 7.67016 15.4688 8.50476 15.4688 9.375V15.4688H9.375C8.50476 15.4688 7.67016 15.8145 7.05481 16.4298C6.43945 17.0452 6.09375 17.8798 6.09375 18.75V26.25C6.09375 28.0613 7.56375 29.5312 9.375 29.5312H15.4688V35.625C15.4688 37.4363 16.9388 38.9062 18.75 38.9062H26.25C27.1202 38.9062 27.9548 38.5605 28.5702 37.9452C29.1855 37.3298 29.5312 36.4952 29.5312 35.625V29.5312H35.625C36.4952 29.5312 37.3298 29.1855 37.9452 28.5702C38.5605 27.9548 38.9062 27.1202 38.9062 26.25V18.75C38.9062 17.8798 38.5605 17.0452 37.9452 16.4298C37.3298 15.8145 36.4952 15.4688 35.625 15.4688H29.5312V9.375C29.5312 8.50476 29.1855 7.67016 28.5702 7.05481C27.9548 6.43945 27.1202 6.09375 26.25 6.09375H18.75Z" fill="#70D4B3"/>
</svg>
